GIL06_slow2_ik
nRows=3
nColumns=375

# SIMM Motion File Header:
name GIL06_slow2_ik
datacolumns 375
datarows 3
otherdata 1
range 0.80000000 0.81667000
endheader
time	pelvis_tx	pelvis_ty	pelvis_tz	pelvis_tilt	pelvis_list	pelvis_rotation	hip_flexion_r	hip_adduction_r	hip_rotation_r	knee_angle_r	ankle_angle_r	hip_flexion_l	hip_adduction_l	hip_rotation_l	knee_angle_l	ankle_angle_l	lumbar_extension	lumbar_bending	lumbar_rotation	subtalar_angle_r	mtp_angle_r	subtalar_angle_l	mtp_angle_l	asis_r_px	asis_r_py	asis_r_pz	asis_l_px	asis_l_py	asis_l_pz	midasis_px	midasis_py	midasis_pz	psis_r_px	psis_r_py	psis_r_pz	psis_l_px	psis_l_py	psis_l_pz	hip_r_px	hip_r_py	hip_r_pz	hip_l_px	hip_l_py	hip_l_pz	midhip_px	midhip_py	midhip_pz	epicondLat_r_px	epicondLat_r_py	epicondLat_r_pz	epicondMed_r_px	epicondMed_r_py	epicondMed_r_pz	thighwand_r_px	thighwand_r_py	thighwand_r_pz	upperleg1_r_px	upperleg1_r_py	upperleg1_r_pz	upperleg2_r_px	upperleg2_r_py	upperleg2_r_pz	malleolusLat_r_px	malleolusLat_r_py	malleolusLat_r_pz	malleolusMedv_r_px	malleolusMedv_r_py	malleolusMedv_r_pz	shankwand_r_px	shankwand_r_py	shankwand_r_pz	lowerleg1_r_px	lowerleg1_r_py	lowerleg1_r_pz	knee_r_px	knee_r_py	knee_r_pz	ankle_r_px	ankle_r_py	ankle_r_pz	toe_r_px	toe_r_py	toe_r_pz	epicondLat_l_px	epicondLat_l_py	epicondLat_l_pz	epicondMed_l_px	epicondMed_l_py	epicondMed_l_pz	thighwand_l_px	thighwand_l_py	thighwand_l_pz	upperleg1_l_px	upperleg1_l_py	upperleg1_l_pz	upperleg2_l_px	upperleg2_l_py	upperleg2_l_pz	malleolusLat_l_px	malleolusLat_l_py	malleolusLat_l_pz	malleolusMedv_l_px	malleolusMedv_l_py	malleolusMedv_l_pz	shankwand_l_px	shankwand_l_py	shankwand_l_pz	lowerleg1_l_px	lowerleg1_l_py	lowerleg1_l_pz	knee_l_px	knee_l_py	knee_l_pz	ankle_l_px	ankle_l_py	ankle_l_pz	toe_l_px	toe_l_py	toe_l_pz	subclavicle_r_px	subclavicle_r_py	subclavicle_r_pz	subclavicle_l_px	subclavicle_l_py	subclavicle_l_pz	neck_px	neck_py	neck_pz	sternalnotch_px	sternalnotch_py	sternalnotch_pz	xyphoidprocess_px	xyphoidprocess_py	xyphoidprocess_pz	midhip_tx	midhip_ty	midhip_tz	hip_r_tx	hip_r_ty	hip_r_tz	hip_l_tx	hip_l_ty	hip_l_tz	knee_r_tx	knee_r_ty	knee_r_tz	knee_l_tx	knee_l_ty	knee_l_tz	ankle_r_tx	ankle_r_ty	ankle_r_tz	ankle_l_tx	ankle_l_ty	ankle_l_tz	midasis_tx	midasis_ty	midasis_tz	asis_r_tx	asis_r_ty	asis_r_tz	asis_l_tx	asis_l_ty	asis_l_tz	psis_r_tx	psis_r_ty	psis_r_tz	psis_l_tx	psis_l_ty	psis_l_tz	epicondLat_r_tx	epicondLat_r_ty	epicondLat_r_tz	epicondLat_l_tx	epicondLat_l_ty	epicondLat_l_tz	epicondMed_r_tx	epicondMed_r_ty	epicondMed_r_tz	epicondMed_l_tx	epicondMed_l_ty	epicondMed_l_tz	malleolusLat_r_tx	malleolusLat_r_ty	malleolusLat_r_tz	malleolusLat_l_tx	malleolusLat_l_ty	malleolusLat_l_tz	malleolusMedv_r_tx	malleolusMedv_r_ty	malleolusMedv_r_tz	malleolusMedv_l_tx	malleolusMedv_l_ty	malleolusMedv_l_tz	neck_tx	neck_ty	neck_tz	subclavicle_r_tx	subclavicle_r_ty	subclavicle_r_tz	subclavicle_l_tx	subclavicle_l_ty	subclavicle_l_tz	sternalnotch_tx	sternalnotch_ty	sternalnotch_tz	xyphoidprocess_tx	xyphoidprocess_ty	xyphoidprocess_tz	thighwand_r_tx	thighwand_r_ty	thighwand_r_tz	thighwand_l_tx	thighwand_l_ty	thighwand_l_tz	upperleg1_r_tx	upperleg1_r_ty	upperleg1_r_tz	upperleg1_l_tx	upperleg1_l_ty	upperleg1_l_tz	upperleg2_r_tx	upperleg2_r_ty	upperleg2_r_tz	upperleg2_l_tx	upperleg2_l_ty	upperleg2_l_tz	shankwand_r_tx	shankwand_r_ty	shankwand_r_tz	shankwand_l_tx	shankwand_l_ty	shankwand_l_tz	lowerleg1_r_tx	lowerleg1_r_ty	lowerleg1_r_tz	lowerleg1_l_tx	lowerleg1_l_ty	lowerleg1_l_tz	toe_r_tx	toe_r_ty	toe_r_tz	toe_l_tx	toe_l_ty	toe_l_tz	ground_force_vx	ground_force_vy	ground_force_vz	ground_force_px	ground_force_py	ground_force_pz	ground_force_vx	ground_force_vy	ground_force_vz	ground_force_px	ground_force_py	ground_force_pz	ground_torque_x	ground_torque_y	ground_torque_z	ground_torque_x	ground_torque_y	ground_torque_z	ground_marker_px	ground_marker_py	ground_marker_pz	ground_marker_px	ground_marker_py	ground_marker_pz	ground_marker_px	ground_marker_py	ground_marker_pz	ground_marker_px	ground_marker_py	ground_marker_pz	ground_marker_px	ground_marker_py	ground_marker_pz	ground_marker_px	ground_marker_py	ground_marker_pz	ground_marker_px	ground_marker_py	ground_marker_pz	ground_marker_px	ground_marker_py	ground_marker_pz	ground_marker_px	ground_marker_py	ground_marker_pz	ground_marker_px	ground_marker_py	ground_marker_pz	ground_marker_px	ground_marker_py	ground_marker_pz	ground_marker_px	ground_marker_py	ground_marker_pz	ground_marker_px	ground_marker_py	ground_marker_pz	ground_marker_px	ground_marker_py	ground_marker_pz	ground_marker_px	ground_marker_py	ground_marker_pz	ground_marker_px	ground_marker_py	ground_marker_pz	ground_marker_px	ground_marker_py	ground_marker_pz	ground_marker_px	ground_marker_py	ground_marker_pz	ground_marker_px	ground_marker_py	ground_marker_pz	ground_marker_px	ground_marker_py	ground_marker_pz	ground_marker_px	ground_marker_py	ground_marker_pz	ground_marker_px	ground_marker_py	ground_marker_pz	ground_marker_px	ground_marker_py	ground_marker_pz	ground_marker_px	ground_marker_py	ground_marker_pz	ground_marker_px	ground_marker_py	ground_marker_pz	ground_marker_px	ground_marker_py	ground_marker_pz	ground_marker_px	ground_marker_py	ground_marker_pz	ground_marker_px	ground_marker_py	ground_marker_pz	ground_marker_px	ground_marker_py	ground_marker_pz	ground_marker_px	ground_marker_py	ground_marker_pz	ground_marker_px	ground_marker_py	ground_marker_pz	ground_marker_px	ground_marker_py	ground_marker_pz	ground_marker_px	ground_marker_py	ground_marker_pz	ground_marker_px	ground_marker_py	ground_marker_pz	ground_marker_px	ground_marker_py	ground_marker_pz	ground_marker_px	ground_marker_py	ground_marker_pz	ground_marker_px	ground_marker_py	ground_marker_pz
      0.80000000	      1.91039233	      0.82887630	     -0.25595467	     -4.35621982	     -4.03595945	      3.28764940	     25.27168403	      6.43711023	      3.77558109	    -18.61657351	     -4.20066457	     -5.26709853	     -5.72642937	     -5.97232008	    -34.29479697	     -5.35395709	      6.45125741	      4.29811716	      7.97662019	      0.00000000	      0.00000000	      0.00000000	      0.00000000	      1.97378426	      0.82063295	     -0.14188263	      1.95700190	      0.80372689	     -0.38664681	      1.92377633	      0.82780230	     -0.25672405	      1.73573607	      0.92015400	     -0.22202353	      1.72764568	      0.91504348	     -0.27643240	      1.84300692	      0.77641240	     -0.16771678	      1.83297690	      0.76587106	     -0.32748348	      1.83799191	      0.77114173	     -0.24760013	      1.98673284	      0.41669039	     -0.13709348	      1.94208827	      0.42079549	     -0.27511307	      2.07856095	      0.61733465	     -0.15093893	      2.03179296	      0.62489922	     -0.16275646	      2.03075165	      0.54753463	     -0.17132682	      1.97984931	      0.05490347	     -0.15445342	      1.98368074	      0.06392731	     -0.23056497	      2.06187014	      0.20678193	     -0.18473647	      2.01462408	      0.21088534	     -0.19024065	      1.96960573	      0.43196237	     -0.19428050	      1.98216438	      0.06391158	     -0.20235706	      2.09174164	      0.03597571	     -0.20214220	      1.75279165	      0.39939649	     -0.40216716	      1.77507950	      0.37778591	     -0.25683117	      1.96756811	      0.54179664	     -0.37744506	      1.92337612	      0.56542947	     -0.37452153	      1.89439770	      0.49759802	     -0.37032609	      1.48529348	      0.14517282	     -0.34922140	      1.52214789	      0.13951762	     -0.27849086	      1.54091916	      0.24035742	     -0.41797416	      1.56020791	      0.24222000	     -0.37308737	      1.77048881	      0.40123975	     -0.33671155	      1.51594571	      0.13611901	     -0.31215259	      1.55814308	      0.04890987	     -0.34310191	      1.87309098	      1.27042154	     -0.21193715	      1.86483097	      1.27524183	     -0.29330757	      1.72935420	      1.31231025	     -0.23392138	      1.85239212	      1.26483432	     -0.26367208	      1.91755763	      1.20329611	     -0.27272702	      1.83554200	      0.76451000	     -0.24662800	      1.82185800	      0.77223900	     -0.16663600	      1.81090200	      0.76380100	     -0.32165000	      1.95929500	      0.41869100	     -0.19804000	      1.75417100	      0.40364900	     -0.33588100	      1.97758600	      0.06013200	     -0.20861900	      1.50529700	      0.13197100	     -0.30635400	      1.94324900	      0.84061800	     -0.25706200	      1.95193400	      0.84730600	     -0.13418600	      1.93456400	      0.83393000	     -0.37993800	      1.70172900	      0.91256000	     -0.20873900	      1.69569100	      0.90935400	     -0.26333800	      1.97153600	      0.41719400	     -0.12761200	      1.74301100	      0.40819200	     -0.40635900	      1.93887900	      0.42044300	     -0.26914600	      1.76532400	      0.39696100	     -0.24358500	      1.97454000	      0.05884500	     -0.17026200	      1.49088200	      0.14131000	     -0.34192400	      1.97945100	      0.07031800	     -0.24534400	      1.51391800	      0.14794600	     -0.26613600	      1.73967600	      1.33575500	     -0.23614300	      1.86788200	      1.26471600	     -0.20943700	      1.86190100	      1.27057000	     -0.29121800	      1.84723300	      1.26355500	     -0.26177800	      1.89724100	      1.18894400	     -0.26935100	      2.06312700	      0.61056100	     -0.12970900	      1.96134000	      0.55961400	     -0.36284200	      2.01900000	      0.62034500	     -0.14310400	      1.91758100	      0.58188900	     -0.36151500	      2.01950800	      0.54373900	     -0.15492400	      1.88787800	      0.51335800	     -0.35649200	      2.06134100	      0.20809200	     -0.18979700	      1.55432800	      0.21906000	     -0.41683700	      2.01406500	      0.21171700	     -0.19573900	      1.56532800	      0.22903700	     -0.37136000	      2.09003900	      0.04591100	     -0.20440400	      1.56529300	      0.05415500	     -0.31393300	   -110.39916784	    633.24014088	    -23.35462123	      2.00277026	      0.00000000	     -0.21141061	     19.52126999	    125.80356491	     -6.54038186	      1.59322131	      0.00000000	     -0.29364355	      0.00000000	     -3.55832373	      0.00000000	      0.00000000	     -0.62586115	      0.00000000	      1.83554244	      0.76451039	     -0.24662752	      1.82185841	      0.77223855	     -0.16663644	      1.81090188	      0.76380116	     -0.32164994	      1.95929515	      0.41869104	     -0.19804034	      1.75417101	      0.40364912	     -0.33588147	      1.97758591	      0.06013218	     -0.20861942	      1.50529671	      0.13197085	     -0.30635375	      1.94324934	      0.84061795	     -0.25706193	      1.95193434	      0.84730607	     -0.13418561	      1.93456435	      0.83392984	     -0.37993824	      1.70172930	      0.91255951	     -0.20873898	      1.69569063	      0.90935355	     -0.26333821	      1.97153616	      0.41719377	     -0.12761189	      1.74301112	      0.40819192	     -0.40635893	      1.93887913	      0.42044291	     -0.26914644	      1.76532412	      0.39696091	     -0.24358487	      1.97454047	      0.05884510	     -0.17026164	      1.49088168	      0.14131002	     -0.34192386	      1.97945118	      0.07031812	     -0.24534389	      1.51391757	      0.14794604	     -0.26613647	      1.73967624	      1.33575511	     -0.23614292	      1.86788249	      1.26471579	     -0.20943709	      1.86190128	      1.27057004	     -0.29121771	      1.84723270	      1.26355481	     -0.26177824	      1.89724064	      1.18894398	     -0.26935121	      2.06312656	      0.61056107	     -0.12970944	      1.96133971	      0.55961430	     -0.36284214	      2.01900029	      0.62034535	     -0.14310449	      1.91758144	      0.58188909	     -0.36151490	      2.01950788	      0.54373872	     -0.15492445	      1.88787806	      0.51335812	     -0.35649189	      2.06134057	      0.20809194	     -0.18979749	      1.55432844	      0.21905981	     -0.41683728	      2.01406455	      0.21171701	     -0.19573909	      1.56532764	      0.22903684	     -0.37135988	      2.09003925	      0.04591099	     -0.20440397	      1.56529319	      0.05415516	     -0.31393293
      0.80833000	      1.91787742	      0.83000456	     -0.25388653	     -4.15920796	     -4.24753143	      3.24501589	     24.48405203	      6.87581330	      3.96703651	    -18.56083211	     -3.72820183	     -4.52371088	     -6.35270877	     -5.77547114	    -36.67233548	     -6.91852218	      6.18831001	      4.40992489	      8.09914150	      0.00000000	      0.00000000	      0.00000000	      0.00000000	      1.98124383	      0.82240901	     -0.13975537	      1.96463625	      0.80452994	     -0.38446231	      1.93126545	      0.82897445	     -0.25464574	      1.74288753	      0.92079777	     -0.22037710	      1.73484073	      0.91545575	     -0.27477020	      1.85063390	      0.77763569	     -0.16548410	      1.84071623	      0.76646244	     -0.32521486	      1.84567507	      0.77204906	     -0.24534948	      1.99067925	      0.41637046	     -0.13599533	      1.94547557	      0.42114619	     -0.27381120	      2.08456321	      0.61605237	     -0.14996510	      2.03782647	      0.62412800	     -0.16156609	      2.03592920	      0.54679117	     -0.17023964	      1.98024158	      0.05470351	     -0.15388840	      1.98382702	      0.06381181	     -0.23000188	      2.06358657	      0.20583471	     -0.18429426	      2.01635857	      0.21040091	     -0.18958482	      1.97345185	      0.43190667	     -0.19308296	      1.98243384	      0.06376555	     -0.20178766	      2.09196790	      0.03566031	     -0.20193543	      1.76667532	      0.39932673	     -0.40293390	      1.78861842	      0.37700758	     -0.25765254	      1.97905959	      0.54490619	     -0.37614857	      1.93448695	      0.56781831	     -0.37326677	      1.90656307	      0.49951014	     -0.36970186	      1.49272671	      0.15174948	     -0.35099916	      1.52924403	      0.14508180	     -0.28018205	      1.55091320	      0.24558232	     -0.41949001	      1.57012688	      0.24690406	     -0.37455186	      1.78425791	      0.40052417	     -0.33743981	      1.52304499	      0.14188094	     -0.31386373	      1.56081867	      0.05239030	     -0.34400486	      1.88076030	      1.27126366	     -0.21106916	      1.87239013	      1.27591939	     -0.29243790	      1.73704188	      1.31327518	     -0.23293882	      1.85998121	      1.26559012	     -0.26276252	      1.92506111	      1.20395560	     -0.27177812	      1.84331200	      0.76554000	     -0.24490800	      1.82954300	      0.77341500	     -0.16495500	      1.81872700	      0.76446300	     -0.31995000	      1.96292400	      0.41888400	     -0.19739500	      1.76729900	      0.40208100	     -0.33792500	      1.97769200	      0.06013400	     -0.20866300	      1.51255100	      0.13717600	     -0.30591200	      1.95077000	      0.84192200	     -0.25550500	      1.95933500	      0.84901100	     -0.13276700	      1.94220500	      0.83483300	     -0.37824200	      1.70906500	      0.91316000	     -0.20766900	      1.70317300	      0.90977200	     -0.26210300	      1.97545000	      0.41715800	     -0.12702200	      1.75647000	      0.40711400	     -0.40842100	      1.94140700	      0.42209400	     -0.26909100	      1.77954100	      0.39419400	     -0.24570800	      1.97474600	      0.05880800	     -0.17029900	      1.49828200	      0.14659500	     -0.34152100	      1.97922000	      0.07061400	     -0.24537100	      1.52187800	      0.15271500	     -0.26585200	      1.74722500	      1.33686400	     -0.23515900	      1.87552000	      1.26613200	     -0.20845800	      1.86986100	      1.27191300	     -0.29071400	      1.85473500	      1.26463300	     -0.26094300	      1.90529900	      1.19037400	     -0.26837700	      2.06920500	      0.60974700	     -0.12917300	      1.97259500	      0.56156700	     -0.36228900	      2.02530200	      0.62058200	     -0.14266800	      1.92844400	      0.58310700	     -0.36096900	      2.02430300	      0.54330100	     -0.15468200	      1.90038000	      0.51448200	     -0.35680400	      2.06308100	      0.20719700	     -0.18980300	      1.56318400	      0.22202200	     -0.41712200	      2.01571400	      0.21141800	     -0.19534900	      1.57457200	      0.23164100	     -0.37175400	      2.09010800	      0.04572600	     -0.20445500	      1.56885600	      0.05594700	     -0.31330400	   -111.14162715	    658.60898800	    -23.04517128	      2.00422437	      0.00000000	     -0.21146419	     13.77816800	     94.39151222	     -6.28845756	      1.59598804	      0.00000000	     -0.29208463	      0.00000000	     -3.82444434	      0.00000000	      0.00000000	     -0.38925586	      0.00000000	      1.84331155	      0.76554018	     -0.24490762	      1.82954311	      0.77341533	     -0.16495542	      1.81872725	      0.76446319	     -0.31994992	      1.96292400	      0.41888437	     -0.19739507	      1.76729906	      0.40208074	     -0.33792520	      1.97769248	      0.06013403	     -0.20866325	      1.51255059	      0.13717629	     -0.30591223	      1.95077014	      0.84192163	     -0.25550485	      1.95933509	      0.84901071	     -0.13276719	      1.94220519	      0.83483255	     -0.37824249	      1.70906532	      0.91316032	     -0.20766941	      1.70317304	      0.90977228	     -0.26210332	      1.97544980	      0.41715765	     -0.12702198	      1.75647032	      0.40711433	     -0.40842095	      1.94140661	      0.42209440	     -0.26909119	      1.77954078	      0.39419359	     -0.24570823	      1.97474575	      0.05880772	     -0.17029910	      1.49828207	      0.14659457	     -0.34152061	      1.97921979	      0.07061383	     -0.24537054	      1.52187765	      0.15271477	     -0.26585200	      1.74722457	      1.33686423	     -0.23515873	      1.87552035	      1.26613212	     -0.20845847	      1.86986148	      1.27191269	     -0.29071432	      1.85473549	      1.26463294	     -0.26094279	      1.90529859	      1.19037426	     -0.26837671	      2.06920528	      0.60974658	     -0.12917289	      1.97259474	      0.56156689	     -0.36228853	      2.02530217	      0.62058210	     -0.14266795	      1.92844403	      0.58310694	     -0.36096877	      2.02430344	      0.54330099	     -0.15468207	      1.90038002	      0.51448166	     -0.35680443	      2.06308079	      0.20719662	     -0.18980299	      1.56318355	      0.22202151	     -0.41712180	      2.01571441	      0.21141836	     -0.19534926	      1.57457244	      0.23164086	     -0.37175387	      2.09010839	      0.04572561	     -0.20445471	      1.56885624	      0.05594736	     -0.31330380
      0.81667000	      1.92522948	      0.83110098	     -0.25184189	     -3.96976490	     -4.41488133	      3.22924778	     23.66092157	      7.25348602	      4.18348882	    -18.38984014	     -3.33234186	     -3.72887520	     -6.93363656	     -5.54955360	    -39.06370645	     -8.39547470	      5.94364366	      4.47795238	      8.12569986	      0.00000000	      0.00000000	      0.00000000	      0.00000000	      1.98861265	      0.82405106	     -0.13768502	      1.97208216	      0.80539923	     -0.38233950	      1.93862093	      0.83011320	     -0.25259724	      1.74993609	      0.92140933	     -0.21860972	      1.74191100	      0.91588107	     -0.27298741	      1.85815425	      0.77876815	     -0.16329040	      1.84828524	      0.76709356	     -0.32298832	      1.85321975	      0.77293085	     -0.24313936	      1.99427047	      0.41592049	     -0.13485092	      1.94847888	      0.42136004	     -0.27244793	      2.09032440	      0.61455182	     -0.14904439	      2.04362752	      0.62316471	     -0.16041721	      2.04082136	      0.54586396	     -0.16916566	      1.98075790	      0.05440924	     -0.15327376	      1.98406728	      0.06361207	     -0.22938838	      2.06521165	      0.20489450	     -0.18382366	      2.01799921	      0.20986036	     -0.18888818	      1.97691457	      0.43171933	     -0.19183362	      1.98280405	      0.06353117	     -0.20116811	      2.09229388	      0.03525936	     -0.20173184	      1.78065318	      0.39937312	     -0.40372566	      1.80232213	      0.37634509	     -0.25851381	      1.99048723	      0.54822737	     -0.37491600	      1.94553046	      0.57038066	     -0.37206814	      1.91872175	      0.50159756	     -0.36912943	      1.50057233	      0.15845283	     -0.35271817	      1.53676666	      0.15078396	     -0.28183660	      1.56120592	      0.25091171	     -0.42095444	      1.58035334	      0.25169445	     -0.37597541	      1.79814496	      0.39991306	     -0.33820510	      1.53056003	      0.14778466	     -0.31553544	      1.56394828	      0.05633328	     -0.34495960	      1.88818931	      1.27208987	     -0.21000836	      1.87981322	      1.27658909	     -0.29138530	      1.74450997	      1.31420018	     -0.23194473	      1.86739787	      1.26633233	     -0.26168747	      1.93241518	      1.20461487	     -0.27058649	      1.85090900	      0.76651200	     -0.24323200	      1.83707700	      0.77448000	     -0.16331200	      1.82636200	      0.76514600	     -0.31829100	      1.96613300	      0.41898600	     -0.19667700	      1.78054000	      0.40058500	     -0.34004900	      1.97784500	      0.06014300	     -0.20869600	      1.52031700	      0.14254700	     -0.30540300	      1.95813000	      0.84316600	     -0.25395900	      1.96660700	      0.85055100	     -0.13133400	      1.94965200	      0.83578000	     -0.37658400	      1.71628800	      0.91371000	     -0.20654800	      1.71053400	      0.91015800	     -0.26080700	      1.97895000	      0.41704000	     -0.12636200	      1.77002600	      0.40611400	     -0.41055500	      1.94469300	      0.42224000	     -0.26813400	      1.79580100	      0.38908600	     -0.24774800	      1.97492100	      0.05876300	     -0.17033200	      1.50617500	      0.15202200	     -0.34104700	      1.97877800	      0.07103100	     -0.24535200	      1.52998700	      0.15858200	     -0.26546000	      1.75451400	      1.33765100	     -0.23405400	      1.88303000	      1.26769000	     -0.20746200	      1.87745000	      1.27298400	     -0.29011600	      1.86215100	      1.26571300	     -0.26017000	      1.91322300	      1.19172400	     -0.26706400	      2.07496900	      0.60870200	     -0.12866500	      1.98393200	      0.56366100	     -0.36181400	      2.03076800	      0.62018500	     -0.14210600	      1.93842900	      0.58394600	     -0.36001100	      2.02906900	      0.54265700	     -0.15412900	      1.91283500	      0.51533300	     -0.35700000	      2.06464100	      0.20632600	     -0.18959200	      1.57238400	      0.22508700	     -0.41735100	      2.01694800	      0.21108000	     -0.19461800	      1.58404500	      0.23507700	     -0.37238500	      2.09016900	      0.04555300	     -0.20451000	      1.57291100	      0.05810000	     -0.31273300	   -111.11018936	    684.71332944	    -22.84510539	      2.00522339	      0.00000000	     -0.21145667	     10.02663995	     67.61835830	     -5.41091718	      1.59910754	      0.00000000	     -0.29085837	      0.00000000	     -4.02456128	      0.00000000	      0.00000000	     -0.24698932	      0.00000000	      1.85090947	      0.76651168	     -0.24323183	      1.83707690	      0.77448034	     -0.16331205	      1.82636249	      0.76514602	     -0.31829104	      1.96613348	      0.41898623	     -0.19667712	      1.78053951	      0.40058509	     -0.34004855	      1.97784472	      0.06014324	     -0.20869593	      1.52031696	      0.14254658	     -0.30540287	      1.95812964	      0.84316576	     -0.25395876	      1.96660721	      0.85055143	     -0.13133377	      1.94965208	      0.83578014	     -0.37658378	      1.71628845	      0.91370970	     -0.20654771	      1.71053433	      0.91015774	     -0.26080668	      1.97895026	      0.41703978	     -0.12636220	      1.77002621	      0.40611443	     -0.41055495	      1.94469285	      0.42223954	     -0.26813391	      1.79580069	      0.38908571	     -0.24774830	      1.97492063	      0.05876287	     -0.17033197	      1.50617528	      0.15202232	     -0.34104651	      1.97877777	      0.07103103	     -0.24535173	      1.52998745	      0.15858209	     -0.26545990	      1.75451362	      1.33765101	     -0.23405445	      1.88302958	      1.26769018	     -0.20746194	      1.87745023	      1.27298355	     -0.29011640	      1.86215103	      1.26571345	     -0.26016954	      1.91322303	      1.19172382	     -0.26706448	      2.07496929	      0.60870183	     -0.12866504	      1.98393214	      0.56366074	     -0.36181396	      2.03076792	      0.62018472	     -0.14210588	      1.93842924	      0.58394617	     -0.36001128	      2.02906919	      0.54265743	     -0.15412936	      1.91283488	      0.51533324	     -0.35700014	      2.06464148	      0.20632583	     -0.18959190	      1.57238412	      0.22508667	     -0.41735101	      2.01694775	      0.21108000	     -0.19461809	      1.58404517	      0.23507725	     -0.37238514	      2.09016871	      0.04555289	     -0.20451045	      1.57291090	      0.05809961	     -0.31273347
